<?xml version="1.0" encoding="UTF-8" standalone="no"?>
<!-- Created with Inkscape (http://www.inkscape.org/) -->

<svg
   version="1.1"
   id="svg1"
   width="209.14043"
   height="256.09784"
   viewBox="0 0 418.28085 512.19568"
   sodipodi:docname="book.svg"
   inkscape:version="1.3 (0e150ed6c4, 2023-07-21)"
   xmlns:inkscape="http://www.inkscape.org/namespaces/inkscape"
   xmlns:sodipodi="http://sodipodi.sourceforge.net/DTD/sodipodi-0.dtd"
   xmlns="http://www.w3.org/2000/svg"
   xmlns:svg="http://www.w3.org/2000/svg">
  <defs
     id="defs1" />
  <sodipodi:namedview
     id="namedview1"
     pagecolor="#505050"
     bordercolor="#eeeeee"
     borderopacity="1"
     inkscape:showpageshadow="0"
     inkscape:pageopacity="0"
     inkscape:pagecheckerboard="0"
     inkscape:deskcolor="#505050"
     inkscape:zoom="3.2399854"
     inkscape:cx="-101.54367"
     inkscape:cy="118.05609"
     inkscape:window-width="3440"
     inkscape:window-height="1369"
     inkscape:window-x="1072"
     inkscape:window-y="388"
     inkscape:window-maximized="1"
     inkscape:current-layer="g1" />
  <g
     inkscape:groupmode="layer"
     inkscape:label="Image"
     id="g1"
     transform="translate(-56.321861,-2.6092684)">
    <path
       style="fill:#000000"
       d="m 79.914316,512.5454 c -7.94128,-2.51671 -16.08829,-9.73537 -20.01735,-17.73638 -4.1753,-8.50244 -4.99048,-275.58476 -0.85376,-279.72148 3.14143,-3.14142 6.97229,-3.14676 10.10498,-0.0141 2.45454,2.45458 2.45454,2.45458 2.45454,135.53215 0,144.44719 -0.28313,136.81091 5.29773,142.88161 4.83921,5.26395 8.66718,6.08596 28.452274,6.10977 l 18.25,0.022 v -241 -241.000004 l -18.25,0.02196 c -19.785094,0.02381 -23.613064,0.84582 -28.452274,6.109769 -5.45292,5.93152 -5.29773,3.313223 -5.29773,89.381615 0,79.57757 0,79.57757 -2.45454,82.03211 -3.13534,3.13534 -6.9641,3.12681 -10.11345,-0.0225 -3.66516,-3.66516 -3.43465,-163.770329 0.24726,-171.740152 3.05539,-6.613658 10.55904,-14.2588219 17.19434,-17.5186289 8.88525,-4.365161 336.367534,-4.365161 345.252784,0 14.94803,7.3436999 19.26425,16.2128069 19.70276,40.4858609 0.32969,18.25 0.32969,18.25 7.38425,18.25 21.94383,0 26.04773,6.79599 25.58765,42.37267 -0.40864,31.59916 -3.62675,36.73638 -23.47481,37.47386 l -9.32624,0.3465 v 20.40347 c 0,20.40347 0,20.40347 4.86351,20.40347 23.52097,0 28.13649,6.5991 28.13649,40.22846 0,33.11023 -3.25116,38.73213 -23,39.77154 l -9.5,0.5 -0.27029,20.75 -0.27029,20.75 h 8.05241 c 20.90783,0 24.93434,6.30611 24.96621,39.10078 0.0329,33.8796 -3.39448,39.64527 -24.19345,40.699 l -8.7154,0.44155 -0.2846,50.62934 c -0.32437,57.70594 0.0585,55.03736 -9.33748,65.08242 -9.47244,10.1268 -11.14362,10.50104 -48.48509,10.8576 -36.96083,0.35293 -37.96202,0.16012 -37.96202,-7.31069 0,-7.24371 1.2105,-7.5 35.42297,-7.5 34.14614,0 35.61173,-0.29099 42.01906,-8.34282 4.83548,-6.07654 4.83548,-459.237824 0,-465.314363 -7.22266,-9.076431 5.80497,-8.342821 -148.15392,-8.342821 H 138.60273 v 241.000004 241 l 93.25,0.0318 c 74.91883,0.0256 93.58629,0.2873 94.96069,1.3315 3.9379,2.99182 3.94437,9.27785 0.0126,12.26418 -3.26912,2.48303 -238.976324,1.81383 -246.911714,-0.70101 z M 457.60273,370.61893 c 1.87404,-1.87404 2,-3.33333 2,-23.17126 0,-25.56558 0.31621,-24.82874 -10.65499,-24.82874 h -7.34501 v 25 25 h 7 c 5.66667,0 7.38095,-0.38095 9,-2 z m -0.0566,-121.44878 c 1.95269,-1.76715 2.0566,-2.93604 2.0566,-23.13363 0,-25.24796 -0.0777,-25.41759 -11.63486,-25.41759 -6.36514,0 -6.36514,0 -6.36514,24.83333 0,13.65834 0.3375,25.176 0.75,25.59482 1.47618,1.49877 13.0421,0.07 15.1934,-1.87693 z m 0.0566,-121.55122 c 1.87302,-1.87302 2,-3.33333 2,-23 0,-25.38122 0.16773,-25 -11,-25 h -7 v 25 25 h 7 c 5.66667,0 7.38095,-0.38095 9,-2 z m -250.5628,308.96603 c -7.04183,-2.60495 -6.36006,-7.40224 2.96958,-20.89559 l 7.74012,-11.19443 -7.41887,-7.76526 c -40.06105,-41.93143 -38.56934,-107.50842 3.3076,-145.40487 7.2031,-6.51843 7.22945,-5.24195 -0.33454,-16.20588 -6.20908,-9 -6.20908,-9 -12.82912,-8.66542 -11.29143,0.57069 -16.08321,-3.35861 -28.12197,-23.0602 -6.97542,-11.41537 -4.55664,-21.40431 7.12331,-29.41738 14.58319,-10.00486 23.17757,-8.21527 34.30674,7.14363 11.40881,15.74481 12.98726,21.75746 8.22215,31.31979 -2.5718,5.16093 -0.35964,10.37028 10.20964,24.04241 0.15427,0.19956 4.01721,-1.23758 8.58432,-3.19364 16.38085,-7.0158 22.28307,-8.16919 41.80384,-8.16919 19.52077,0 25.42299,1.15339 41.80384,8.16919 4.56711,1.95606 8.43828,3.3932 8.60261,3.19364 9.29126,-11.28317 12.6159,-19.17698 10.1559,-24.11355 -4.7175,-9.46678 -3.126,-15.53228 8.19014,-31.21418 11.0626,-15.33055 19.87094,-17.17971 34.41711,-7.22528 14.39072,9.84805 14.55297,19.6469 0.64879,39.18115 -8.29431,11.65283 -11.67457,13.75022 -21.31839,13.22771 -7,-0.37927 -7,-0.37927 -13.65357,9.34355 l -6.65357,9.72282 5.51111,4.75795 c 42.86062,37.00317 44.94953,104.30088 4.55003,146.58657 l -7.43686,7.78407 7.7581,11.19493 c 9.88754,14.26772 10.0303,21.3836 0.42354,21.11046 -4.13093,-0.11745 -4.30433,-0.29095 -12.96913,-12.97584 l -7.45554,-10.91459 -9.03705,4.27132 c -28.14129,13.30087 -58.93602,13.29938 -87.08298,-0.004 l -9.04592,-4.27553 -7.95408,11.52937 c -8.13306,11.7888 -10.57545,13.75945 -15.01688,12.11646 z m 96.96105,-27.00248 c 13.8671,-3.63213 30.02594,-12.05937 25.73479,-13.42132 -3.23048,-1.02532 -28.00769,-17.82281 -34.58976,-23.44982 -3.27619,-2.80083 -6.27564,-5.09241 -6.66544,-5.09241 -2.85602,0 -19.00901,22.32863 -24.51759,33.89122 -4.04049,8.48105 -3.94011,8.68975 4.63114,9.62852 3.02973,0.33184 6.18361,0.77895 7.00861,0.99359 3.54807,0.92309 21.18511,-0.66048 28.39825,-2.54978 z m -47.7355,-25.30023 c 4.51393,-7.51457 11.30716,-16.5706 17.14483,-22.85571 4.35833,-4.69239 4.35833,-4.69239 -2.37818,-13 -3.70508,-4.56919 -7.06913,-8.44151 -7.47566,-8.60518 -3.38925,-1.36445 -37.06614,45.46565 -36.93239,51.35711 0.0262,1.15295 6.43201,5.83741 13.90689,10.16984 5.57176,3.22938 5.57176,3.22938 8.80201,-3.83669 1.77664,-3.88633 4.89627,-9.83955 6.9325,-13.22937 z m 92.19486,-2.35839 c 5.039,-5.89513 7.04017,-9.4985 5.55272,-9.99845 -32.09758,-10.78846 -79.36139,-70.8435 -92.7046,-117.7937 -1.7214,-6.05703 -3.19082,-11.1317 -3.26538,-11.27705 -0.30305,-0.59081 -12.35451,4.19242 -14.2893,5.67144 -2.08368,1.59283 -2.08368,1.59283 -0.15536,10.36829 11.60072,52.79302 43.54455,95.7452 91.63606,123.21529 9.56001,5.46071 8.38524,5.47722 13.22586,-0.18582 z M 220.01045,371.36893 c 6.66835,-11.83237 16.22627,-24.82044 26.0576,-35.40912 4.69407,-5.05569 8.53468,-9.37862 8.53468,-9.60651 0,-0.2279 -2.21467,-4.36508 -4.92149,-9.19374 l -4.92149,-8.77937 -9.56128,9.24966 c -10.76378,10.41299 -19.57178,21.15934 -27.41729,33.45096 -6.00202,9.40342 -5.98548,9.52907 2.99957,22.78812 4.75715,7.02004 3.70371,7.30538 9.2297,-2.5 z m 146.69708,-25.65978 c 2.82839,-11.0589 2.85322,-10.98606 -5.42253,-15.91107 -28.63832,-17.04304 -50.38855,-45.07704 -60.78789,-78.34984 -3.89632,-12.46631 -2.6906,-11.04438 -10.1635,-11.98605 -10.90701,-1.3744 -17.83589,-0.14392 -17.08706,3.03444 10.39428,44.11728 40.96108,86.4418 80.85618,111.95802 9.16797,5.86367 8.80378,6.11635 12.6048,-8.7455 z M 204.10564,330.11893 c 3.20143,-4.4 12.28662,-14.43269 20.18929,-22.29487 14.36851,-14.29487 14.36851,-14.29487 11.75029,-21.5 -1.44001,-3.96282 -3.88677,-11.93013 -5.43724,-17.70513 l -2.81902,-10.5 -7.34312,7.61837 c -12.95887,13.44465 -21.28225,30.80755 -23.83727,49.72553 -1.11974,8.29083 -0.42577,25.08239 0.97003,23.47129 0.38844,-0.44836 3.32561,-4.41519 6.52704,-8.81519 z M 367.1431,307.13678 c -5.94053,-25.61507 -22.41559,-46.84606 -45.42572,-58.53897 -7.65618,-3.89059 -7.9787,-3.62339 -5.12644,4.24717 8.4447,23.3024 24.92648,45.22534 44.17431,58.75765 8.38848,5.89758 8.72641,5.66095 6.37785,-4.46585 z M 206.35273,207.84435 c 7.25829,-5.50022 -7.87779,-28.54753 -15.54896,-23.676 -8.84331,5.61588 -8.93245,6.95232 -1.22805,18.41041 7.44748,11.07599 8.62266,11.44483 16.77701,5.26559 z m 169.21418,-5.25248 c 7.78963,-11.37316 7.69978,-12.79387 -1.16522,-18.42352 -4.76312,-3.02479 -19.61032,12.73478 -18.61137,19.75504 1.44227,10.13583 12.4291,9.39611 19.77659,-1.33152 z M 233.60273,142.61893 c -2.97766,-2.97766 -2.66668,-8.33043 0.63486,-10.92742 4.12517,-3.24486 92.60511,-3.24486 96.73028,0 3.40388,2.67749 3.61927,7.93239 0.4463,10.88846 -3.39362,3.16164 -94.65241,3.19799 -97.81144,0.039 z m -20.89919,-31.08289 c -20.23375,-3.97279 -24.8742,-43.7367 -6.3732,-54.61184 9.72001,-5.71355 64.65624,-6.342515 68.14267,1.30937 3.48643,7.651885 1.0921,10.38536 -31.82483,10.38536 -34.42605,0 -33.99366,-0.23236 -32.85465,17.65544 0.78082,12.26256 -5.10452,11.34456 72.73011,11.34456 79.95654,0 72.07909,1.59262 72.07909,-14.57258 0,-15.4551 2.26697,-14.42742 -31.82569,-14.42742 -32.57287,0 -35.8842,-5.198055 -30.26219,-12.13922 5.62201,-6.941165 59.40436,-3.64429 66.36027,0.44449 19.18,11.27426 14.00086,50.66034 -7.19011,54.67913 -6.57838,1.24756 -132.59556,1.18655 -138.98147,-0.0673 z"
       id="path2"
       sodipodi:nodetypes="ssscssscccsssssscssssscsssscccssscsssssssscccsssssssscccssssssssssscccsscscssssssssssssssssssscsscssscsscsccsssssssssssssssssssssssssssscsssssssscsssssscssssssssssssssssssssssssszssssszssss" />
  </g>
</svg>
